#!OML:ASF H:\BabyWalks\Project 1\Capture day 1\Session 1\baby.ASF
:FULLY-SPECIFIED
:DEGREES
1300
root 44.5343 17.2588 -0.0519596 -404.568 78.0699 -400.879
lowerback 20.3345 1.05315 5.47586
upperback 6.44164 3.09381 3.47461
thorax -4.29022 1.69554 -0.130414
lowerneck 3.82495 1.44729 7.52864
upperneck -18.4753 1.27166 -11.1701
head -6.02403 1.12447 -4.95293
rclavicle -2.36554e-014 -2.06736e-014
rhumerus -39.128 14.1582 -85.7136
rradius 61.5445
rwrist 2.60998
rhand -14.0533 350.567
rfingers 7.12502
rthumb 12.0777 -39.0644
lclavicle -2.36554e-014 -2.06736e-014
lhumerus -51.3317 -10.4813 84.9383
lradius 47.6945
lwrist -2.70616
lhand 4.82903 3.52093
lfingers 7.12502
lthumb 30.2069 31.0705
rfemur 4.37059 15.336 28.5916
rtibia 18.4032
rfoot -18.0294 7.33043
rtoes 3.58156
lfemur -19.0552 -3.82309 -4.13187
ltibia 33.0563
lfoot -12.6466 -2.67792
ltoes -6.81725
1301
root 44.5865 17.2541 -0.0880352 -402.977 77.5985 -399.295
lowerback 20.425 1.13173 5.27619
upperback 6.50741 3.1514 3.36552
thorax -4.26872 1.72443 -0.149499
lowerneck 3.95098 1.60412 7.47612
upperneck -18.6769 1.52511 -10.888
head -6.08978 1.23483 -4.87348
rclavicle 1.26228e-014 -3.97569e-016
rhumerus -39.3047 13.518 -85.7146
rradius 61.3662
rwrist 2.81181
rhand -14.5224 350.587
rfingers 7.12502
rthumb 11.6254 -39.0703
lclavicle 1.26228e-014 -3.97569e-016
lhumerus -50.6594 -10.4693 84.5722
lradius 47.6335
lwrist -2.83103
lhand 4.57648 3.32801
lfingers 7.12502
lthumb 29.9659 30.9214
rfemur 4.47943 15.6498 28.5471
rtibia 18.4128
rfoot -18.1076 7.47997
rtoes 3.47571
lfemur -18.9755 -3.16004 -4.18859
ltibia 33.5893
lfoot -13.0888 -2.73594
ltoes -6.98132
1302
root 44.6373 17.2495 -0.123135 -401.502 77.1377 -397.837
lowerback 20.5206 1.20937 5.05588
upperback 6.56582 3.20323 3.24765
thorax -4.25872 1.74984 -0.165402
lowerneck 4.04407 1.7569 7.40357
upperneck -18.8276 1.77833 -10.5663
head -6.13584 1.34114 -4.77554
rclavicle 2.00773e-014 7.35503e-015
rhumerus -39.5007 12.8845 -85.7189
rradius 61.1759
rwrist 2.93432
rhand -14.9969 350.577
rfingers 7.12502
rthumb 11.1677 -39.106
lclavicle 2.00773e-014 7.35503e-015
lhumerus -49.9852 -10.477 84.1691
lradius 47.6306
lwrist -2.94267
lhand 4.31951 3.14114
lfingers 7.12502
lthumb 29.7207 30.7786
rfemur 4.55811 15.9376 28.4853
rtibia 18.4472
rfoot -18.1939 7.62268
rtoes 3.3399
lfemur -18.9034 -2.48949 -4.24891
ltibia 34.0962
lfoot -13.535 -2.84923
ltoes -7.02113
1303
root 44.6871 17.2455 -0.157365 -400.18 76.6813 -396.546
lowerback 20.6043 1.28106 4.83309
upperback 6.62308 3.24531 3.12453
thorax -4.24398 1.77052 -0.182866
lowerneck 4.10299 1.90867 7.32681
upperneck -18.9358 2.03353 -10.2242
head -6.16391 1.44535 -4.66852
rclavicle 7.28049e-014 5.96354e-015
rhumerus -39.6961 12.2714 -85.7284
rradius 60.9649
rwrist 2.97704
rhand -15.4595 350.527
rfingers 7.12502
rthumb 10.7215 -39.1792
lclavicle 7.28049e-014 5.96354e-015
lhumerus -49.305 -10.495 83.7257
lradius 47.6959
lwrist -3.03621
lhand 4.06355 2.97211
lfingers 7.12502
lthumb 29.4764 30.6529
rfemur 4.61144 16.1952 28.4212
rtibia 18.4905
rfoot -18.282 7.75709
rtoes 3.19672
lfemur -18.8411 -1.81998 -4.29613
ltibia 34.569
lfoot -13.9609 -2.96376
ltoes -7.04657
1304
root 44.7357 17.242 -0.191102 -399.006 76.2196 -395.423
lowerback 20.6785 1.34643 4.61973
upperback 6.67143 3.28013 3.00012
thorax -4.23364 1.78722 -0.205171
lowerneck 4.13765 2.06272 7.24921
upperneck -19.0103 2.2939 -9.87192
head -6.17809 1.55013 -4.5569
rclavicle 1.88348e-014 8.24956e-015
rhumerus -39.8923 11.6917 -85.7455
rradius 60.7289
rwrist 2.94834
rhand -15.9161 350.45
rfingers 7.12502
rthumb 10.2811 -39.2785
lclavicle 1.88348e-014 8.24956e-015
lhumerus -48.6336 -10.5204 83.2486
lradius 47.8357
lwrist -3.09943
lhand 3.79898 2.82401
lfingers 7.12502
lthumb 29.2238 30.5491
rfemur 4.63679 16.4258 28.3633
rtibia 18.5277
rfoot -18.3606 7.88455
rtoes 3.02154
lfemur -18.7945 -1.15355 -4.31839
ltibia 35.006
lfoot -14.3637 -3.0756
ltoes -7.07401
1305
root 44.7837 17.2395 -0.224807 -397.955 75.7547 -394.449
lowerback 20.7321 1.40371 4.425
upperback 6.71253 3.30632 2.87321
thorax -4.21949 1.79954 -0.237968
lowerneck 4.16265 2.21898 7.16872
upperneck -19.0731 2.55837 -9.51463
head -6.18791 1.6563 -4.4431
rclavicle -5.889e-015 1.2921e-014
rhumerus -40.079 11.1507 -85.7696
rradius 60.4587
rwrist 2.86364
rhand -16.3595 350.355
rfingers 7.12502
rthumb 9.85334 -39.3949
lclavicle -5.889e-015 1.2921e-014
lhumerus -47.9727 -10.5479 82.7402
lradius 48.0534
lwrist -3.13213
lhand 3.52767 2.69996
lfingers 7.12502
lthumb 28.9647 30.4698
rfemur 4.63658 16.628 28.3065
rtibia 18.5484
rfoot -18.4227 8.01463
rtoes 2.8598
lfemur -18.7621 -0.496919 -4.32158
ltibia 35.4081
lfoot -14.7487 -3.19297
ltoes -7.05674
1306
root 44.8312 17.238 -0.25858 -397 75.2924 -393.597
lowerback 20.7619 1.45309 4.24383
upperback 6.7432 3.3231 2.74567
thorax -4.20379 1.80691 -0.276178
lowerneck 4.19273 2.37902 7.08268
upperneck -19.1389 2.82819 -9.15833
head -6.20043 1.76563 -4.32951
rclavicle 9.26212e-015 -7.05686e-015
rhumerus -40.2573 10.659 -85.7979
rradius 60.1561
rwrist 2.73984
rhand -16.7728 350.241
rfingers 7.12502
rthumb 9.45458 -39.5273
lclavicle 9.26212e-015 -7.05686e-015
lhumerus -47.3312 -10.5692 82.2087
lradius 48.3461
lwrist -3.13524
lhand 3.24205 2.5934
lfingers 7.12502
lthumb 28.6918 30.4097
rfemur 4.60915 16.8008 28.2448
rtibia 18.5513
rfoot -18.4694 8.14044
rtoes 2.66967
lfemur -18.7451 0.141278 -4.31437
ltibia 35.775
lfoot -15.1192 -3.30458
ltoes -7.00442
1307
root 44.8783 17.2377 -0.292868 -396.117 74.8246 -392.849
lowerback 20.7693 1.49492 4.08666
upperback 6.75806 3.33306 2.61611
thorax -4.19227 1.81031 -0.327932
lowerneck 4.23065 2.53752 7.00178
upperneck -19.207 3.09461 -8.81855
head -6.21611 1.87428 -4.22257
rclavicle -1.85864e-014 2.03754e-015
rhumerus -40.4274 10.2176 -85.8335
rradius 59.8108
rwrist 2.60595
rhand -17.1578 350.122
rfingers 7.12502
rthumb 9.08309 -39.662
lclavicle -1.85864e-014 2.03754e-015
lhumerus -46.7175 -10.5783 81.6521
lradius 48.7135
lwrist -3.10603
lhand 2.94826 2.50794
lfingers 7.12502
lthumb 28.4111 30.3714
rfemur 4.5458 16.9463 28.1788
rtibia 18.5415
rfoot -18.5011 8.27146
rtoes 2.46892
lfemur -18.7451 0.755133 -4.29419
ltibia 36.1053
lfoot -15.4685 -3.39119
ltoes -6.9308
1308
root 44.9252 17.2387 -0.328002 -395.205 74.3744 -392.105
lowerback 20.7489 1.53132 3.9268
upperback 6.75442 3.33254 2.47596
thorax -4.18622 1.8077 -0.386318
lowerneck 4.28905 2.69693 6.92376
upperneck -19.2835 3.36091 -8.49722
head -6.23868 1.98431 -4.12319
rclavicle -3.0911e-014 -4.96962e-016
rhumerus -40.5933 9.82813 -85.8743
rradius 59.427
rwrist 2.48506
rhand -17.499 350.002
rfingers 7.12502
rthumb 8.7538 -39.7969
lclavicle -3.0911e-014 -4.96962e-016
lhumerus -46.137 -10.5659 81.0737
lradius 49.1451
lwrist -3.04929
lhand 2.64537 2.43511
lfingers 7.12502
lthumb 28.1216 30.3465
rfemur 4.44051 17.0517 28.0694
rtibia 18.531
rfoot -18.5343 8.40553
rtoes 2.17029
lfemur -18.7627 1.32895 -4.30252
ltibia 36.3936
lfoot -15.7923 -3.44149
ltoes -6.84366
1309
root 44.9717 17.2411 -0.36392 -394.244 73.9439 -391.346
lowerback 20.7067 1.56403 3.76207
upperback 6.72514 3.32361 2.32325
thorax -4.19629 1.79968 -0.453118
lowerneck 4.37299 2.85505 6.84195
upperneck -19.3654 3.6249 -8.18593
head -6.26854 2.0943 -4.02744
rclavicle 2.76311e-014 1.8487e-014
rhumerus -40.7629 9.48739 -85.921
rradius 59.002
rwrist 2.40417
rhand -17.7788 349.89
rfingers 7.12502
rthumb 8.48382 -39.9195
lclavicle 2.76311e-014 1.8487e-014
lhumerus -45.5993 -10.5357 80.4757
lradius 49.6389
lwrist -2.95618
lhand 2.33181 2.37957
lfingers 7.12502
lthumb 27.8219 30.3399
rfemur 4.28335 17.1262 27.9131
rtibia 18.5332
rfoot -18.5686 8.54061
rtoes 1.79389
lfemur -18.7998 1.85449 -4.34504
ltibia 36.637
lfoot -16.0867 -3.44937
ltoes -6.73392
1310
root 45.018 17.2453 -0.400844 -393.171 73.541 -390.505
lowerback 20.6361 1.59425 3.57554
upperback 6.67394 3.30362 2.1504
thorax -4.21562 1.78518 -0.525842
lowerneck 4.45821 3.00887 6.76925
upperneck -19.4316 3.8815 -7.89176
head -6.29465 2.20097 -3.9382
rclavicle 2.08724e-015 -1.49089e-014
rhumerus -40.9258 9.19716 -85.9756
rradius 58.5312
rwrist 2.37881
rhand -17.9903 349.801
rfingers 7.12502
rthumb 8.27967 -40.0164
lclavicle 2.08724e-015 -1.49089e-014
lhumerus -45.0995 -10.4767 79.8533
lradius 50.1865
lwrist -2.82292
lhand 2.00977 2.33711
lfingers 7.12502
lthumb 27.5139 30.3468
rfemur 4.06561 17.1697 27.6854
rtibia 18.5645
rfoot -18.6066 8.68872
rtoes 1.38463
lfemur -18.8521 2.32475 -4.44772
ltibia 36.8297
lfoot -16.35 -3.40369
ltoes -6.61755
